# xmcd CD database file
#
# Track frame offsets:
#	150
#	13465
#	26778
#	39768
#	53468
#	67609
#	79668
#	93149
#	111100
#	128252
#	144222
#	164014
#	180911
#	198397
#	209017
#	228120
#	247349
#	264164
#	279695
#	297948
#
# Disc length: 4238 seconds
#
# Revision: 0
# Processed by: cddbd v1.5.2PL0 Copyright (c) Steve Scherf et al.
# Submitted via: CDex 1.51
#
DISCID=0a108c14
DTITLE=Mac Davis - The Best of Mac Davis
DYEAR=2000
DGENRE=Country
TTITLE0=Baby Don't Get Hooked on Me
TTITLE1=Stop and Smell the Roses
TTITLE2=One Hell of a Woman
TTITLE3=Rock and Roll (I Gave You the Best Years of My Life)
TTITLE4=Kiss It and Make It Better
TTITLE5=Forever Lovers
TTITLE6=Burnin' Thing
TTITLE7=Every Now and Then
TTITLE8=Your Side of the Bed
TTITLE9=Picking up the Pieces of My Life
TTITLE10=Whoever Finds This, I Love You
TTITLE11=Dream Me Home
TTITLE12=I'll Paint You a Song
TTITLE13=If You Add All the Love in the World
TTITLE14=I Still Love You (You Still Love Me)
TTITLE15=Music in My Life
TTITLE16=Beginning to Feel the Pain
TTITLE17=In the Ghetto
TTITLE18=Watching Scotty Grow
TTITLE19=Friend, Lover, Woman, Wife
EXTD=YEAR: 2000
EXTT0=
EXTT1=
EXTT2=
EXTT3=
EXTT4=
EXTT5=
EXTT6=
EXTT7=
EXTT8=
EXTT9=
EXTT10=
EXTT11=
EXTT12=
EXTT13=
EXTT14=
EXTT15=
EXTT16=
EXTT17=
EXTT18=
EXTT19=
PLAYORDER=
